<svg width="80" height="80" viewBox="0 0 80 80" fill="none" xmlns="http://www.w3.org/2000/svg">
<path d="M0 30C0 27.3478 1.05357 24.8043 2.92893 22.9289C4.8043 21.0536 7.34784 20 10 20H70C72.6522 20 75.1957 21.0536 77.0711 22.9289C78.9464 24.8043 80 27.3478 80 30V45C80 47.6522 78.9464 50.1957 77.0711 52.0711C75.1957 53.9464 72.6522 55 70 55H46.345C47.065 55.81 47.995 56.62 49 57.375C50.4367 58.4394 51.9528 59.3922 53.535 60.225L53.605 60.255L53.62 60.265C54.1233 60.5172 54.5267 60.932 54.7649 61.442C55.0032 61.9521 55.0623 62.5276 54.9327 63.0755C54.8031 63.6233 54.4924 64.1114 54.0509 64.4606C53.6094 64.8099 53.063 65 52.5 65H27.5C26.937 65 26.3906 64.8099 25.9491 64.4606C25.5076 64.1114 25.1969 63.6233 25.0673 63.0755C24.9377 62.5276 24.9968 61.9521 25.2351 61.442C25.4733 60.932 25.8767 60.5172 26.38 60.265L26.395 60.255L26.465 60.22C26.9191 59.9871 27.366 59.7403 27.805 59.48C28.9076 58.8371 29.9742 58.1344 31 57.375C32 56.625 32.935 55.81 33.655 55H10C7.34784 55 4.8043 53.9464 2.92893 52.0711C1.05357 50.1957 0 47.6522 0 45V30ZM10 25C8.67392 25 7.40215 25.5268 6.46447 26.4645C5.52678 27.4021 5 28.6739 5 30V45C5 46.3261 5.52678 47.5979 6.46447 48.5355C7.40215 49.4732 8.67392 50 10 50H70C71.3261 50 72.5979 49.4732 73.5355 48.5355C74.4732 47.5979 75 46.3261 75 45V30C75 28.6739 74.4732 27.4021 73.5355 26.4645C72.5979 25.5268 71.3261 25 70 25H10Z" fill="white"/>
<path d="M40 32.5C38.6739 32.5 37.4021 33.0268 36.4645 33.9645C35.5268 34.9021 35 36.1739 35 37.5C35 38.8261 35.5268 40.0979 36.4645 41.0355C37.4021 41.9732 38.6739 42.5 40 42.5C41.3261 42.5 42.5979 41.9732 43.5355 41.0355C44.4732 40.0979 45 38.8261 45 37.5C45 36.1739 44.4732 34.9021 43.5355 33.9645C42.5979 33.0268 41.3261 32.5 40 32.5ZM30 37.5C30 34.8478 31.0536 32.3043 32.9289 30.4289C34.8043 28.5536 37.3478 27.5 40 27.5C42.6522 27.5 45.1957 28.5536 47.0711 30.4289C48.9464 32.3043 50 34.8478 50 37.5C50 40.1522 48.9464 42.6957 47.0711 44.5711C45.1957 46.4464 42.6522 47.5 40 47.5C37.3478 47.5 34.8043 46.4464 32.9289 44.5711C31.0536 42.6957 30 40.1522 30 37.5ZM65 37.5C65 38.163 64.7366 38.7989 64.2678 39.2678C63.7989 39.7366 63.163 40 62.5 40C61.837 40 61.2011 39.7366 60.7322 39.2678C60.2634 38.7989 60 38.163 60 37.5C60 36.837 60.2634 36.2011 60.7322 35.7322C61.2011 35.2634 61.837 35 62.5 35C63.163 35 63.7989 35.2634 64.2678 35.7322C64.7366 36.2011 65 36.837 65 37.5Z" fill="white"/>
</svg>
