<svg width="80" height="80" viewBox="0 0 80 80" fill="none" xmlns="http://www.w3.org/2000/svg">
<path d="M40 43.3334C43.5362 43.3334 46.9276 41.9287 49.4281 39.4282C51.9286 36.9277 53.3333 33.5363 53.3333 30.0001C53.3333 26.4639 51.9286 23.0725 49.4281 20.572C46.9276 18.0715 43.5362 16.6667 40 16.6667C36.4638 16.6667 33.0724 18.0715 30.5719 20.572C28.0714 23.0725 26.6666 26.4639 26.6666 30.0001C26.6666 33.5363 28.0714 36.9277 30.5719 39.4282C33.0724 41.9287 36.4638 43.3334 40 43.3334ZM40 43.3334C34.6956 43.3334 29.6086 45.4406 25.8578 49.1913C22.1071 52.942 20 58.0291 20 63.3334V73.3334M40 43.3334C45.3043 43.3334 50.3914 45.4406 54.1421 49.1913C57.8928 52.942 60 58.0291 60 63.3334V73.3334M43.3333 16.6667C44.68 11.1201 50.05 6.66675 56.6666 6.66675C63.9066 6.66675 69.9333 12.6334 70 20.0001C69.9333 27.3667 63.9066 33.3334 56.6666 33.3334M56.6666 33.3334H53.3333M56.6666 33.3334C67.6266 33.3334 76.6666 42.2867 76.6666 53.3334V60.0001M36.6666 16.6667C35.32 11.1201 29.95 6.66675 23.3333 6.66675C16.0933 6.66675 10.0666 12.6334 9.99998 20.0001C10.0666 27.3667 16.0933 33.3334 23.3333 33.3334M23.3333 33.3334H26.6666M23.3333 33.3334C12.3733 33.3334 3.33331 42.2867 3.33331 53.3334V60.0001" stroke="white" stroke-width="6.66667"/>
</svg>
