<svg width="80" height="80" viewBox="0 0 80 80" fill="none" xmlns="http://www.w3.org/2000/svg">
<path d="M40 66.6667C47.0725 66.6667 53.8552 63.8572 58.8562 58.8563C63.8572 53.8553 66.6667 47.0725 66.6667 40.0001C66.6667 32.9276 63.8572 26.1449 58.8562 21.1439C53.8552 16.1429 47.0725 13.3334 40 13.3334C32.9276 13.3334 26.1448 16.1429 21.1438 21.1439C16.1429 26.1449 13.3334 32.9276 13.3334 40.0001C13.3334 47.0725 16.1429 53.8553 21.1438 58.8563C26.1448 63.8572 32.9276 66.6667 40 66.6667ZM40 6.66675C44.3774 6.66675 48.7119 7.52894 52.7561 9.2041C56.8003 10.8793 60.475 13.3346 63.5702 16.4299C66.6655 19.5251 69.1208 23.1998 70.796 27.244C72.4712 31.2882 73.3334 35.6227 73.3334 40.0001C73.3334 48.8406 69.8215 57.3191 63.5702 63.5703C57.319 69.8215 48.8406 73.3334 40 73.3334C21.5667 73.3334 6.66669 58.3334 6.66669 40.0001C6.66669 31.1595 10.1786 22.6811 16.4298 16.4299C22.681 10.1786 31.1595 6.66675 40 6.66675ZM41.6667 23.3334V40.8334L56.6667 49.7334L54.1667 53.8334L36.6667 43.3334V23.3334H41.6667Z" fill="white"/>
</svg>
