<svg width="80" height="80" viewBox="0 0 80 80" fill="none" xmlns="http://www.w3.org/2000/svg">
<path d="M69.4907 49.5189L54.7688 42.922L54.7282 42.9032C53.9639 42.5763 53.1302 42.4452 52.3024 42.5215C51.4747 42.5979 50.6791 42.8795 49.9875 43.3407C49.9061 43.3945 49.8279 43.4529 49.7532 43.5157L42.1469 50.0001C37.3282 47.6595 32.3532 42.722 30.0125 37.9657L36.5063 30.2439C36.5688 30.1657 36.6282 30.0876 36.6844 30.0032C37.1357 29.3135 37.4096 28.523 37.4815 27.7019C37.5535 26.8808 37.4214 26.0547 37.0969 25.297V25.2595L30.4813 10.5126C30.0523 9.5228 29.3148 8.69827 28.3787 8.1621C27.4427 7.62592 26.3583 7.40685 25.2875 7.5376C21.0531 8.09481 17.1662 10.1744 14.3529 13.3879C11.5397 16.6014 9.99237 20.7291 10 25.0001C10 49.8126 30.1875 70.0001 55 70.0001C59.271 70.0078 63.3987 68.4604 66.6122 65.6472C69.8258 62.8339 71.9053 58.9471 72.4625 54.7126C72.5935 53.6422 72.3749 52.5581 71.8393 51.6221C71.3037 50.6861 70.4799 49.9483 69.4907 49.5189ZM55 65.0001C44.3949 64.9885 34.2275 60.7705 26.7285 53.2716C19.2296 45.7726 15.0116 35.6052 15 25.0001C14.9883 21.9485 16.0877 18.997 18.093 16.6967C20.0982 14.3964 22.8722 12.9047 25.8969 12.5001C25.8957 12.5126 25.8957 12.5251 25.8969 12.5376L32.4594 27.2251L26 34.9564C25.9345 35.0318 25.8749 35.1122 25.8219 35.197C25.3516 35.9186 25.0758 36.7495 25.021 37.609C24.9663 38.4686 25.1345 39.3278 25.5094 40.1032C28.3407 45.8939 34.175 51.6845 40.0282 54.5126C40.8093 54.884 41.6734 55.0464 42.5361 54.984C43.3988 54.9215 44.2305 54.6364 44.95 54.1563C45.0303 54.1023 45.1075 54.0439 45.1813 53.9813L52.7782 47.5001L67.4657 54.0782H67.5C67.1004 57.1072 65.6109 59.8868 63.3102 61.897C61.0095 63.9072 58.0552 65.0104 55 65.0001Z" fill="white"/>
</svg>
