<svg width="80" height="80" viewBox="0 0 80 80" fill="none" xmlns="http://www.w3.org/2000/svg">
<path d="M30 16.6667C30 18.4348 30.7024 20.1305 31.9526 21.3807C33.2029 22.631 34.8986 23.3333 36.6667 23.3333C38.4348 23.3333 40.1305 22.631 41.3807 21.3807C42.631 20.1305 43.3333 18.4348 43.3333 16.6667C43.3333 14.8986 42.631 13.2029 41.3807 11.9526C40.1305 10.7024 38.4348 10 36.6667 10C34.8986 10 33.2029 10.7024 31.9526 11.9526C30.7024 13.2029 30 14.8986 30 16.6667Z" stroke="white" stroke-width="6.66667" stroke-linecap="round" stroke-linejoin="round"/>
<path d="M36.6667 23.3333V49.9999H50L63.3333 66.6666M36.6667 36.6666H53.3333M23.3333 38.3333C20.945 39.3223 18.8194 40.8534 17.1247 42.8055C15.43 44.7575 14.2126 47.077 13.5688 49.5806C12.925 52.0842 12.8723 54.7033 13.415 57.2307C13.9577 59.7582 15.0809 62.1247 16.6958 64.1433C18.3106 66.1619 20.3729 67.7772 22.7196 68.8614C25.0663 69.9457 27.633 70.4693 30.2168 70.3907C32.8007 70.3121 35.3309 69.6336 37.6073 68.4087C39.8838 67.1838 41.8441 65.4462 43.3333 63.3333" stroke="white" stroke-width="6.66667" stroke-linecap="round" stroke-linejoin="round"/>
</svg>
